PathFileType	4	(X/Y/Z)	Run_500 02
DataRate	CameraRate	NumFrames	NumMarkers	Units	OrigDataRate	OrigDataStartFrame	OrigNumFrames
100	100	6	42	mm	100	66	128
Frame#	Time	RASI			RPSI			RTH1			RTH2			RTH3			LTH1			LTH2			LTH3			RTB1			RTB2			RTB3			LTB1			LTB2			LTB3			RCAL			RTOE			RMT5			LCAL			LTOE			LMT5			LACR			RACR			CLAV			C7			RUA1			RUA2			RUA3			RLEL			LUA1			LUA2			LUA3			LLEL			LMEL			RFAsuperior			RFAradius			RFAulna			LFAsuperior			LFAradius			LPSI			RMEL			LFAulna			LASI		
		X1	Y1	Z1	X2	Y2	Z2	X3	Y3	Z3	X4	Y4	Z4	X5	Y5	Z5	X6	Y6	Z6	X7	Y7	Z7	X8	Y8	Z8	X9	Y9	Z9	X10	Y10	Z10	X11	Y11	Z11	X12	Y12	Z12	X13	Y13	Z13	X14	Y14	Z14	X15	Y15	Z15	X16	Y16	Z16	X17	Y17	Z17	X18	Y18	Z18	X19	Y19	Z19	X20	Y20	Z20	X21	Y21	Z21	X22	Y22	Z22	X23	Y23	Z23	X24	Y24	Z24	X25	Y25	Z25	X26	Y26	Z26	X27	Y27	Z27	X28	Y28	Z28	X29	Y29	Z29	X30	Y30	Z30	X31	Y31	Z31	X32	Y32	Z32	X33	Y33	Z33	X34	Y34	Z34	X35	Y35	Z35	X36	Y36	Z36	X37	Y37	Z37	X38	Y38	Z38	X39	Y39	Z39	X40	Y40	Z40	X41	Y41	Z41	X42	Y42	Z42	

66	  0.660000	994.662331	1009.920822	-217.049316	839.834323	1070.584015	-296.507911	918.417623	893.288859	-175.124032	890.776962	742.948529	-210.865718	962.927356	597.853166	-223.804146	965.967209	890.855994	-525.357468	950.490167	731.022400	-502.379817	1047.669243	622.236285	-508.202903	983.329105	349.572428	-314.889043	894.813022	331.488203	-242.823900	870.618539	192.385188	-332.004083	1009.523809	454.895776	-451.050151	890.055753	529.528135	-499.620288	791.080599	460.773658	-444.402125	697.637972	106.332689	-337.846233	939.796177	 70.742134	-357.852558	886.197944	 49.501820	-264.060039	643.080024	571.105048	-409.574065	655.089097	334.682540	-432.082847	618.533796	389.106367	-523.422126	964.901263	1510.959184	-481.540355	999.983689	1470.955193	-156.869338	1047.132133	1450.705195	-292.454546	921.255208	1522.805019	-316.595712	901.458330	1374.460033	-84.004295	942.987195	1316.550699	-54.074454	876.709468	1247.471748	 -0.923778	845.709969	1193.508161	 33.520049	850.639786	1439.673540	-527.856339	861.125762	1368.736871	-574.657470	773.790043	1331.808251	-598.669561	738.694252	1277.566807	-629.291203	717.709406	1250.002096	-545.351624	937.956503	1131.716042	 28.097086	1079.549567	1082.496614	-75.692229	1057.928110	1038.309773	-26.903486	777.428031	1197.912661	-636.773835	919.435429	1095.937644	-551.740993	848.563075	1076.925441	-409.370089	838.971340	1158.419073	-49.203440	892.126915	1062.781873	-609.357096	1005.227510	1009.590997	-473.954706	
67	  0.670000	992.775921	1008.957432	-217.906751	838.383517	1070.929934	-296.593048	913.050438	892.627194	-176.370834	876.776278	743.481808	-210.282330	939.662301	594.789946	-223.501932	965.510232	892.804343	-527.981204	962.049672	734.609137	-505.060761	1067.824190	632.801989	-508.899510	947.929440	344.230385	-314.175035	858.661354	329.766331	-242.310524	830.256335	191.476527	-331.182004	1040.172664	462.139898	-449.394097	915.950174	527.162697	-499.962405	822.034981	451.666537	-445.285689	654.553097	109.455402	-337.477009	895.845045	 70.468443	-357.468866	841.822417	 49.407565	-264.116795	663.774212	549.846698	-413.108463	698.896346	315.437346	-431.946628	657.619697	364.562443	-524.155632	961.972401	1511.385266	-481.265035	1003.462479	1470.385382	-157.687072	1047.129717	1450.160722	-293.877095	920.107479	1521.954680	-315.727717	908.200612	1369.562120	-85.003135	953.299206	1313.845812	-55.798935	891.273877	1241.740805	 -1.742172	864.892659	1185.789660	 33.723879	845.553150	1442.893050	-525.472508	853.457085	1372.441054	-573.182515	764.364642	1338.169528	-594.453308	727.190186	1285.134576	-625.602504	708.299193	1256.243549	-541.762969	960.046226	1128.046737	 23.850513	1098.968307	1084.973582	-85.694677	1081.229743	1039.570368	-36.123744	763.578785	1204.454596	-635.554637	902.618893	1094.752951	-555.807129	846.598979	1077.272822	-409.330386	856.362280	1150.354206	-49.013664	874.227459	1064.226710	-614.599981	1003.149293	1009.806810	-474.187842	
68	  0.680000	991.954287	1008.584567	-219.047676	837.622950	1072.131730	-296.446504	909.225001	892.901543	-177.549915	862.752881	745.664254	-209.949628	915.057728	593.277205	-223.622133	966.820717	896.041180	-530.333581	973.203068	739.840543	-507.509748	1086.670906	645.377527	-509.464631	911.911376	341.678951	-312.268707	822.019701	330.517592	-241.450129	789.936708	192.698530	-329.570164	1069.541265	470.902076	-447.878718	940.595006	525.100113	-500.044558	853.216276	441.913193	-445.904358	612.032690	115.392751	-336.581861	851.640202	 69.908671	-357.566283	796.815853	 49.343425	-264.421349	685.231674	525.406277	-415.645935	744.759233	295.633885	-431.248479	698.571702	338.916334	-524.118293	958.572991	1513.604487	-480.979069	1007.812810	1471.661018	-158.941547	1047.443235	1451.116224	-295.525104	919.247218	1522.748366	-314.662414	915.087508	1368.194564	-85.054488	963.162191	1313.751464	-58.079582	904.456157	1239.690808	 -3.636645	881.637814	1182.320931	 32.324020	839.961854	1448.058751	-522.428320	844.971714	1378.826982	-571.827227	754.411016	1346.969506	-590.597093	715.042598	1295.044501	-621.824610	698.227876	1265.343562	-537.935908	979.161827	1128.941314	 18.167821	1115.738430	1094.825371	-96.880876	1102.908650	1047.521835	-47.583081	749.522019	1213.640548	-633.514941	888.621166	1101.377092	-558.935365	845.541508	1078.876216	-409.376379	871.721962	1146.976017	-50.526407	858.312492	1070.745779	-616.646876	1001.979693	1011.280406	-474.505331	
69	  0.690000	992.296129	1008.764008	-220.233337	837.808668	1073.956148	-296.212583	906.359325	893.889505	-178.684411	849.357412	749.642401	-209.891547	890.101534	593.924586	-223.971235	969.804095	901.144249	-532.252207	983.581834	746.501729	-509.243535	1103.353158	659.208718	-509.573101	875.281309	342.359831	-310.072245	785.040040	334.085537	-240.440437	749.153393	196.626467	-327.740719	1097.274365	480.567889	-446.647316	963.929692	522.648640	-499.794742	884.431669	431.453170	-445.810056	569.780974	125.301550	-334.933140	805.905573	 69.096277	-358.026849	750.107273	 49.515158	-264.793185	708.235090	498.248878	-416.971998	792.249565	275.891726	-429.942335	741.389308	312.887898	-523.251561	954.939742	1517.393559	-480.735988	1012.235724	1474.772673	-160.661150	1047.901050	1453.700611	-297.502396	918.820628	1525.299074	-313.682606	922.420566	1370.040886	-84.277303	972.181718	1315.988985	-60.763494	916.113015	1240.496951	 -6.130711	896.053294	1181.864890	 29.796895	834.265310	1454.993026	-518.821597	836.165981	1387.388218	-570.424948	744.405642	1357.597011	-587.074010	702.916140	1306.730848	-617.652320	687.877793	1276.719211	-533.683166	995.627014	1133.844639	 11.387374	1129.568119	1110.486595	-108.889349	1122.439836	1061.256666	-60.553762	736.038384	1225.107468	-630.528623	877.426759	1113.852860	-561.013388	845.174048	1081.546415	-409.303785	885.333766	1147.284563	-53.450882	844.369864	1081.089235	-615.782389	1001.500888	1013.823829	-474.702615	
70	  0.700000	993.950710	1009.581038	-220.800605	839.251369	1076.301116	-295.789644	903.941419	895.718215	-179.694010	837.138545	755.615235	-209.965975	865.629754	597.460470	-224.363624	973.815357	908.334572	-533.501010	992.915550	754.218164	-509.821743	1117.267436	673.454628	-508.955919	838.050414	346.512237	-308.047845	747.584889	341.110437	-239.431339	708.252697	203.899407	-326.232179	1123.040769	490.576963	-445.351481	986.085066	519.228286	-498.958652	915.718386	420.383187	-444.749043	528.301152	139.875275	-332.389362	757.902044	 68.069974	-358.441423	701.269458	 50.094816	-265.144589	733.375478	468.882024	-416.871069	841.153351	256.837106	-428.142616	786.106259	287.137587	-521.532913	951.512224	1522.388235	-480.603599	1015.985827	1479.440777	-162.919532	1048.183863	1457.688010	-300.004739	918.561704	1529.076827	-313.093974	929.677421	1374.221785	-83.512064	980.198854	1320.118672	-63.699959	926.621163	1243.325116	 -8.777956	908.874684	1183.383256	 26.741393	829.083494	1463.534196	-515.144881	827.826953	1397.326171	-568.769462	735.010408	1369.475229	-583.617465	691.479117	1319.671516	-612.882664	677.931684	1289.696756	-528.811121	1010.265075	1142.025580	  3.971492	1140.540409	1129.595036	-121.508335	1139.612533	1079.181956	-74.087329	723.839223	1238.414956	-626.621747	868.243802	1129.578038	-562.014267	845.458011	1084.966100	-408.766940	897.580425	1150.009561	-57.179103	832.165959	1093.796896	-612.765024	1001.672942	1017.117311	-474.435550	
71	  0.710000	997.091470	1011.014371	-220.306617	842.057934	1079.210860	-294.872122	902.377603	898.650579	-180.480037	826.506987	763.539686	-209.824437	842.272096	604.329483	-224.636120	978.007342	917.168240	-533.967116	1001.082051	762.585164	-509.095137	1128.343678	687.322622	-507.688792	800.960792	354.044633	-306.143094	710.139399	351.919975	-238.380985	668.653538	214.530505	-325.119651	1146.615260	500.499599	-443.561974	1007.307916	514.607959	-497.351065	947.359516	408.950651	-442.744348	488.942276	158.636701	-329.142062	708.280327	 66.981914	-358.586955	651.222658	 51.246939	-265.505964	760.984798	437.825992	-415.198566	891.528711	239.123619	-425.865301	832.890304	262.305147	-518.947150	948.636377	1528.114729	-480.638003	1018.734321	1485.154846	-165.704175	1048.094297	1462.617574	-303.098321	918.193309	1533.353651	-313.044652	936.058297	1379.619185	-83.578552	987.354131	1325.487511	-66.733104	936.712589	1247.432793	-11.239917	920.811992	1186.292636	 23.654497	824.894692	1473.240999	-511.892284	820.619455	1407.765408	-566.781777	726.770378	1382.058169	-579.963886	681.128385	1333.342369	-607.504044	669.054908	1303.683287	-523.209734	1023.503288	1152.402714	 -3.578562	1148.830987	1150.199408	-134.399880	1154.343380	1099.747902	-87.354885	713.048936	1252.770189	-621.943723	860.254283	1146.410763	-562.008949	846.540684	1088.868302	-407.570548	908.529632	1154.195686	-60.949884	821.492811	1107.663417	-608.431346	1002.643114	1020.892177	-473.509658	
